M48
; DRILL file {KiCad 5.99.0-1.20210728git36d6608.fc33} date Thu Jul 29 17:49:54 2021
; FORMAT={-:-/ absolute / metric / decimal}
; #@! TF.CreationDate,2021-07-29T17:49:54+01:00
; #@! TF.GenerationSoftware,Kicad,Pcbnew,5.99.0-1.20210728git36d6608.fc33
; #@! TF.FileFunction,Plated,1,2,PTH
FMAT,2
METRIC
; #@! TA.AperFunction,Plated,PTH,ViaDrill
T1C0.500
; #@! TA.AperFunction,Plated,PTH,ComponentDrill
T2C1.000
; #@! TA.AperFunction,Plated,PTH,ViaDrill
T3C3.000
%
G90
G05
T1
X-3.81Y17.78
X-3.81Y12.7
X-3.81Y7.62
X-3.81Y2.54
X-0.508Y12.7
X-0.508Y7.62
X3.048Y13.716
X3.048Y6.604
X3.81Y24.13
X3.81Y-3.81
X8.89Y24.13
X8.89Y-3.81
X10.668Y12.192
X10.668Y8.128
X13.97Y24.13
X13.97Y-3.81
X15.24Y14.224
X17.272Y12.192
X17.272Y8.128
X19.05Y24.13
X19.05Y-3.81
X22.86Y12.192
X22.86Y8.128
X24.13Y24.13
X24.13Y-3.81
X24.384Y14.224
X29.21Y24.13
X29.21Y-3.81
X29.972Y13.716
X29.972Y6.604
X33.528Y12.7
X33.528Y7.62
X36.83Y17.78
X36.83Y12.7
X36.83Y7.62
X36.83Y2.54
T2
X19.812Y21.844
X22.352Y21.844
T3
X0.0Y20.32
X0.0Y0.0
X33.02Y20.32
X33.02Y0.0
T0
M30
